<?xml version="1.0" encoding="UTF-8"?>
<!DOCTYPE svg PUBLIC "-//W3C//DTD SVG 1.1//EN" "http://www.w3.org/Graphics/SVG/1.1/DTD/svg11.dtd">
<!-- Creator: CorelDRAW 2020 (64-Bit Оценочная версия) -->
<svg xmlns="http://www.w3.org/2000/svg" xml:space="preserve" width="210mm" height="297mm" version="1.1" style="shape-rendering:geometricPrecision; text-rendering:geometricPrecision; image-rendering:optimizeQuality; fill-rule:evenodd; clip-rule:evenodd"
viewBox="0 0 21000 29700"
 xmlns:xlink="http://www.w3.org/1999/xlink"
 xmlns:xodm="http://www.corel.com/coreldraw/odm/2003">
 <defs>
  <style type="text/css">
   <![CDATA[
    .fil0 {fill:#1F1F1F;fill-rule:nonzero}
   ]]>
  </style>
 </defs>
 <g id="Слой_x0020_1">
  <metadata id="CorelCorpID_0Corel-Layer"/>
  <path class="fil0" d="M9419.12 14240.71l-749.68 0 0 -3233.39 749.68 0 0 3233.39zm1676.75 -3224.22l0 594.21 -1547.19 0 0 -594.21 1547.19 0zm-121.78 1220.63l0 594.15 -1420.65 0 0 -594.15 1420.65 0zm128.86 1404.83l0 594.14 -1547.13 0 0 -594.14 1547.13 0zm223.19 -2620.84l805.42 0 1045 3218.06 -699.33 0 -1151.09 -3218.06zm1574.71 1981.38l630.91 -1981.38 798.36 0 -1086.74 3031.5 -342.53 -1050.12zm1438.72 -1981.38l805.42 0 1045.01 3218.06 -699.33 0 -1151.1 -3218.06zm1574.72 1981.38l630.91 -1981.38 798.35 0 -1086.74 3031.5 -342.52 -1050.12zm1411.19 1238.22l1132.26 -3219.6 843.17 0 1166.86 3221.91 -836.1 0 -213.66 -683.99 -920.98 0 175.29 -584.97 564.16 0 -237.33 -768.44c-14.08,-55.26 -25.14,-101.34 -34.52,-138.18 -9.46,-36.84 -18.08,-71.36 -25.14,-103.64 -7.92,-32.22 -15.69,-66.04 -24.37,-100.57 -8.62,-34.53 -18.08,-79.06 -29.07,-132.78 -10.23,52.17 -19.68,95.94 -27.52,130.47 -7.85,34.6 -14.92,66.81 -21.99,97.49 -7.08,30.74 -14.14,63.72 -22.83,98.32 -8.62,34.52 -19.61,76.75 -33.76,128.15l-621.52 2055.83 -832.95 0zm-16774.59 8217.86l4169.36 1.61 -0.84 -19752.52 -4167.89 0.49 -0.63 19750.42zm8114.28 2.52l2947.32 0.49 4427.29 1.47 4425.89 1.05 0 -3703.24 -4425.89 0.91 -3689.37 1.34 -3685.24 0.69 0 3697.29zm0.42 -16059.16l10817.69 2.18 981.83 0.7 -0.36 -3701.14 -9836.05 2.24 -983.87 0.14 -978.47 0.28 -0.77 3695.6z"/>
 </g>
</svg>
