<?xml version="1.0" encoding="UTF-8"?>
<!DOCTYPE svg PUBLIC "-//W3C//DTD SVG 1.1//EN" "http://www.w3.org/Graphics/SVG/1.1/DTD/svg11.dtd">
<!-- Creator: CorelDRAW 2020 (64-Bit Оценочная версия) -->
<svg xmlns="http://www.w3.org/2000/svg" xml:space="preserve" width="210mm" height="297mm" version="1.1" style="shape-rendering:geometricPrecision; text-rendering:geometricPrecision; image-rendering:optimizeQuality; fill-rule:evenodd; clip-rule:evenodd"
viewBox="0 0 21000 29700"
 xmlns:xlink="http://www.w3.org/1999/xlink"
 xmlns:xodm="http://www.corel.com/coreldraw/odm/2003">
 <defs>
  <style type="text/css">
   <![CDATA[
    .fil0 {fill:white;fill-rule:nonzero}
   ]]>
  </style>
 </defs>
 <g id="Слой_x0020_1">
  <metadata id="CorelCorpID_0Corel-Layer"/>
  <path class="fil0" d="M10645.74 11196.66l3609.78 0.87 -0.05 -566.13 -0.05 -566.14 -3609.45 0.82 -0.23 1130.58zm-0.13 4912.92l3610.08 0.92 0 -1132.92 -3610.08 0.9 0 1131.1zm-2482.37 -0.77l1275.51 0.49 -0.25 -6042.82 -1275.07 0.15 -0.19 6042.18zm5131.79 -2514.06l254.82 0c75.94,-251.21 172.23,-511.03 222.6,-767.96 26.56,129.85 68.15,254.01 107.2,380.45l-172.59 0 -53.63 178.96 281.76 0 65.36 209.25 255.79 0 -356.98 -985.67 -257.94 0 -346.39 984.97zm-431.72 -378.81l104.78 321.26 332.46 -927.42 -244.23 0 -193.01 606.16zm-481.75 -606.16l352.15 984.49 213.94 0 -319.69 -984.49 -246.4 0zm-440.14 606.16l104.78 321.26 332.47 -927.42 -244.24 0 -193.01 606.16zm-481.75 -606.16l352.15 984.49 213.94 0 -319.69 -984.49 -246.4 0zm-68.28 801.79l-473.31 0 0 181.76 473.31 0 0 -181.76zm-39.42 -429.77l-434.61 0 0 181.76 434.61 0 0 -181.76zm37.26 -373.43l-473.33 0 0 181.78 473.33 0 0 -181.78zm-512.97 986.38l0 -989.19 -229.35 0 0 989.19 229.35 0zm6559.01 -7416.77c382.3,0 690.61,308.31 690.61,690.61l0 12431.09c0,382.3 -308.31,690.61 -690.61,690.61l-12431.09 0c-382.3,0 -690.61,-308.31 -690.61,-690.61l0 -12431.09c0,-382.3 308.31,-690.61 690.61,-690.61l12431.09 0z"/>
 </g>
</svg>
